HIERARCHY
ROOT SpineBase
{
  OFFSET 0.000000 0.000000 0.000000
  CHANNELS 6 Xposition Yposition Zposition Zrotation Xrotation Yrotation
  JOINT SpineMid
  {
    OFFSET 0.000000 32.371624 0.000000
    CHANNELS 3 Zrotation Xrotation Yrotation
    JOINT SpineShoulder
    {
      OFFSET -0.026673 24.216339 -0.915667
      CHANNELS 3 Zrotation Xrotation Yrotation
      JOINT Neck
      {
        OFFSET -0.039992 8.077554 -0.689553
        CHANNELS 3 Zrotation Xrotation Yrotation
        JOINT Head
        {
          OFFSET -6.762522 9.240651 3.232375
          CHANNELS 3 Zrotation Xrotation Yrotation
          End Site
          {
            OFFSET 0 0 0
          }
        }
      }
      JOINT ShoulderLeft
      {
        OFFSET -9.636351 -4.591590 14.003005
        CHANNELS 3 Zrotation Xrotation Yrotation
        JOINT ElbowLeft
        {
          OFFSET -4.177735 -26.333853 14.607431
          CHANNELS 3 Zrotation Xrotation Yrotation
          JOINT WristLeft
          {
            OFFSET -9.392633 -21.574495 -1.938040
            CHANNELS 3 Zrotation Xrotation Yrotation
            JOINT HandLeft
            {
              OFFSET -2.111532 -1.602521 -0.666833
              CHANNELS 3 Zrotation Xrotation Yrotation
              JOINT HandTipLeft
              {
                OFFSET -1.463604 -4.102962 -2.095080
                CHANNELS 3 Zrotation Xrotation Yrotation
                End Site
                {
                  OFFSET 0 0 0
                }
              }
              JOINT ThumbLeft
              {
                OFFSET 1.700447 -2.056990 -0.284619
                CHANNELS 3 Zrotation Xrotation Yrotation
                End Site
                {
                  OFFSET 0 0 0
                }
              }
            }
          }
        }
      }
      JOINT ShoulderRight
      {
        OFFSET 9.522106 -0.810652 -12.043994
        CHANNELS 3 Zrotation Xrotation Yrotation
        JOINT ElbowRight
        {
          OFFSET 5.058532 -20.619703 -11.058692
          CHANNELS 3 Zrotation Xrotation Yrotation
          JOINT WristRight
          {
            OFFSET -18.851568 -16.774021 -2.088277
            CHANNELS 3 Zrotation Xrotation Yrotation
            JOINT HandRight
            {
              OFFSET -7.652383 -4.077953 0.013508
              CHANNELS 3 Zrotation Xrotation Yrotation
              JOINT HandTipRight
              {
                OFFSET -5.406509 -4.783383 2.164627
                CHANNELS 3 Zrotation Xrotation Yrotation
                End Site
                {
                  OFFSET 0 0 0
                }
              }
              JOINT ThumbRight
              {
                OFFSET -2.667060 1.731493 -1.630400
                CHANNELS 3 Zrotation Xrotation Yrotation
                End Site
                {
                  OFFSET 0 0 0
                }
              }
            }
          }
        }
      }
    }
  }
  JOINT HipLeft
  {
    OFFSET -3.347479 0.283661 0.776768
    CHANNELS 3 Zrotation Xrotation Yrotation
    JOINT KneeLeft
    {
      OFFSET -3.672262 -34.891297 -1.647878
      CHANNELS 3 Zrotation Xrotation Yrotation
      JOINT AnkleLeft
      {
        OFFSET 3.984180 -35.026291 -0.417698
        CHANNELS 3 Zrotation Xrotation Yrotation
        JOINT FootLeft
        {
          OFFSET -9.012468 -2.743643 -9.881410
          CHANNELS 3 Zrotation Xrotation Yrotation
          End Site
          {
            OFFSET 0 0 0
          }
        }
      }
    }
  }
  JOINT HipRight
  {
    OFFSET 2.576253 2.781325 -8.249874
    CHANNELS 3 Zrotation Xrotation Yrotation
    JOINT KneeRight
    {
      OFFSET 4.527657 -32.612928 -8.569888
      CHANNELS 3 Zrotation Xrotation Yrotation
      JOINT AnkleRight
      {
        OFFSET 2.790391 -36.140344 1.410896
        CHANNELS 3 Zrotation Xrotation Yrotation
        JOINT FootRight
        {
          OFFSET -9.802181 -1.470880 -11.566622
          CHANNELS 3 Zrotation Xrotation Yrotation
          End Site
          {
            OFFSET 0 0 0
          }
        }
      }
    }
  }
}
MOTION
Frames: 14
Frame Time: 0.033333
34.983728 75.753145 331.009149 2.159283 -10.903341 34.579924 0.210993 0.252710 -34.313230 -0.004061 0.266272 0.057961 -17.741189 -2.638709 -3.356002 0.000000 0.000000 0.000000 -26.927191 11.847552 -8.791544 21.774908 10.400846 10.067675 29.527593 -12.490686 6.305289 -8.966575 -43.159007 27.956258 0.000000 0.000000 0.000000 0.000000 0.000000 0.000000 9.534669 -7.107399 -11.558364 41.475636 17.539733 -16.001678 1.748349 1.937809 -2.154587 -13.388645 12.379405 10.165330 0.000000 0.000000 0.000000 0.000000 0.000000 0.000000 -0.280201 5.527507 -33.380170 1.010951 -7.338906 -2.400451 21.118241 -10.848054 -13.744883 0.000000 0.000000 0.000000 16.442917 21.700340 -36.567588 2.024209 -6.434296 -0.034569 0.412535 -15.354420 -11.542503 0.000000 0.000000 0.000000
35.977062 75.838769 328.261640 2.111374 -11.474624 36.766227 0.447415 0.229435 -36.510485 0.063277 0.299943 0.061205 -19.356863 -2.566286 -2.885398 0.000000 0.000000 0.000000 -28.790566 10.588113 -9.230383 22.619446 12.147244 10.442470 29.557915 -12.422832 6.394074 -8.941556 -42.997396 27.374876 0.000000 0.000000 0.000000 0.000000 0.000000 0.000000 7.699687 -5.486997 -10.398411 42.351706 16.791606 -18.232951 2.611451 1.477444 -2.046661 -12.777658 13.477439 8.504403 0.000000 0.000000 0.000000 0.000000 0.000000 0.000000 -0.494812 6.656208 -35.396970 1.762526 -8.656546 -2.647971 16.609551 -3.077779 -14.325670 0.000000 0.000000 0.000000 15.472912 20.447712 -38.293303 2.800321 -6.878875 -0.136095 1.875475 -14.525492 -12.120872 0.000000 0.000000 0.000000
37.010986 75.680030 326.007097 2.473818 -12.172581 38.631404 0.372664 0.180356 -38.309355 0.008490 0.315137 0.072459 -20.766797 -2.231778 -2.458976 0.000000 0.000000 0.000000 -29.293730 9.135232 -9.037647 18.339770 13.393991 10.891284 29.680623 -12.243039 6.694193 -6.242037 -43.489278 25.575758 0.000000 0.000000 0.000000 0.000000 0.000000 0.000000 6.189660 -3.282951 -9.401133 42.883143 15.875444 -19.834793 2.177795 0.952666 -1.827419 -12.799374 13.531189 7.630119 0.000000 0.000000 0.000000 0.000000 0.000000 0.000000 -0.901164 8.231922 -36.993115 2.667471 -9.442437 -2.818495 16.250524 -1.771729 -14.772959 0.000000 0.000000 0.000000 13.921698 20.293451 -39.527896 4.354251 -7.126117 -0.283789 2.871799 -14.065139 -12.939899 0.000000 0.000000 0.000000
37.580006 75.789604 323.890746 2.931023 -12.645326 39.884765 0.313460 0.129858 -39.483985 0.042463 0.272098 0.089261 -20.966983 -0.709523 -1.357042 0.000000 0.000000 0.000000 -28.013687 8.067352 -8.195351 9.411861 12.528356 11.667518 29.877987 -11.824408 7.195423 -1.929061 -44.251699 22.050720 0.000000 0.000000 0.000000 0.000000 0.000000 0.000000 4.757938 -0.652371 -8.361649 42.672176 14.525911 -20.365343 3.059025 0.688380 -2.850672 -12.926864 14.550744 4.975206 0.000000 0.000000 0.000000 0.000000 0.000000 0.000000 -0.731194 9.635754 -38.160970 3.128723 -10.363621 -2.822874 14.603228 0.867271 -15.647901 0.000000 0.000000 0.000000 12.390542 19.808401 -40.335084 5.196385 -7.066728 -0.381452 3.630340 -13.418825 -13.700861 0.000000 0.000000 0.000000
37.704365 76.046313 322.117125 3.324464 -12.833621 40.731995 0.274010 0.235937 -40.263088 0.036689 0.287783 0.101081 -21.213958 -0.395708 -1.111226 0.000000 0.000000 0.000000 -25.117508 7.427367 -7.021701 -3.404433 10.006007 12.412854 30.098555 -11.237388 7.771210 4.337648 -45.755858 17.545598 0.000000 0.000000 0.000000 0.000000 0.000000 0.000000 3.657902 1.319634 -7.389478 42.032713 13.509598 -20.985729 4.037058 0.431180 -3.924302 -13.196395 15.356634 2.687101 0.000000 0.000000 0.000000 0.000000 0.000000 0.000000 -0.298400 10.388541 -39.065235 3.285605 -10.660152 -2.693041 12.156199 3.805291 -15.846049 0.000000 0.000000 0.000000 11.170068 18.551177 -41.051642 5.083789 -6.243788 -0.335695 4.021583 -12.714500 -14.053528 0.000000 0.000000 0.000000
37.788345 76.461320 320.266742 3.456204 -12.790899 41.700981 0.332962 0.453974 -41.212738 0.036453 0.273383 0.103537 -20.296867 0.469283 -0.575565 0.000000 0.000000 0.000000 -20.986598 8.912286 -5.633559 -17.217376 4.813698 11.831361 30.287559 -10.437269 8.322166 10.788738 -47.616210 12.637795 0.000000 0.000000 0.000000 0.000000 0.000000 0.000000 2.755894 2.754146 -6.394226 41.269995 12.716210 -21.748697 3.943679 0.065165 -5.094972 -13.090144 15.650144 1.625499 0.000000 0.000000 0.000000 0.000000 0.000000 0.000000 0.299848 11.047395 -40.184096 3.399823 -11.861997 -2.624708 10.311440 6.751303 -16.154043 0.000000 0.000000 0.000000 10.022051 16.590193 -42.002289 4.475471 -4.832348 -0.234884 4.181305 -11.602679 -13.502975 0.000000 0.000000 0.000000
37.476540 77.194076 318.469030 3.240908 -11.845059 42.338292 0.276392 0.131949 -41.909880 -0.088744 0.494974 0.101875 -19.550875 -0.189669 -0.984342 0.000000 0.000000 0.000000 -16.269224 11.326598 -4.456070 -31.090028 1.690895 9.075361 30.315900 -10.081172 8.471513 19.403419 -50.744661 11.466476 0.000000 0.000000 0.000000 0.000000 0.000000 0.000000 2.526771 3.160316 -5.773069 39.985177 12.346317 -22.245236 3.096550 -0.333860 -5.977699 -11.674566 15.674283 2.796546 0.000000 0.000000 0.000000 0.000000 0.000000 0.000000 0.914487 10.567175 -41.156671 3.105305 -12.216497 -2.392040 7.264389 10.140817 -14.459778 0.000000 0.000000 0.000000 8.964654 13.387185 -42.877779 2.938840 -3.453937 0.035706 3.955285 -9.654263 -12.687708 0.000000 0.000000 0.000000
36.949640 78.197305 316.432229 2.893454 -10.876716 42.548036 0.246749 -0.299418 -42.196449 -0.251577 0.883375 0.095120 -19.422321 -0.788901 -0.879219 0.000000 0.000000 0.000000 -11.971305 13.426705 -3.547942 -42.823098 -1.554841 5.697749 30.383080 -9.391723 8.793886 25.260508 -52.855130 8.925705 0.000000 0.000000 0.000000 0.000000 0.000000 0.000000 2.401404 2.986447 -5.280791 38.644032 12.450721 -23.045130 2.673609 -0.839673 -4.995752 -11.091103 15.866187 1.332211 0.000000 0.000000 0.000000 0.000000 0.000000 0.000000 2.040557 9.672313 -41.833825 1.989613 -12.485552 -2.105409 9.100047 7.039364 -14.825414 0.000000 0.000000 0.000000 8.021941 10.009706 -43.460885 1.194504 -2.600580 0.408823 3.413008 -6.800830 -11.541610 0.000000 0.000000 0.000000
36.279666 79.355629 314.645220 2.461727 -9.607694 42.249748 0.113155 -0.725704 -41.977480 -0.329146 1.209835 0.082163 -19.720899 -1.965016 -1.007293 0.000000 0.000000 0.000000 -8.389501 16.116780 -3.075619 -50.969272 -4.628198 1.576819 30.448786 -8.794726 9.081848 28.381171 -54.049884 6.693996 0.000000 0.000000 0.000000 0.000000 0.000000 0.000000 2.723798 2.525211 -5.046312 37.116935 12.656442 -23.572769 1.525195 -1.330891 -5.266246 -10.510148 15.347432 2.179337 0.000000 0.000000 0.000000 0.000000 0.000000 0.000000 3.213343 8.436934 -42.017255 0.404676 -12.076018 -1.732209 6.129955 9.963512 -13.611653 0.000000 0.000000 0.000000 7.129841 6.269961 -43.660925 -0.748989 -1.563000 0.948388 2.414470 -3.808650 -10.120107 0.000000 0.000000 0.000000
35.457872 80.448312 312.826935 1.957838 -8.018030 40.811139 -0.083317 -1.072205 -40.616733 -0.318575 1.344762 0.065625 -19.303102 -2.758126 -0.956746 0.000000 0.000000 0.000000 -5.914433 18.052320 -2.989276 -55.449963 -7.064184 -1.851563 30.519051 -8.408703 9.323415 29.156331 -54.397592 4.801251 0.000000 0.000000 0.000000 0.000000 0.000000 0.000000 3.491939 1.487328 -5.105995 35.473004 13.145411 -23.764448 1.528200 -1.489287 -5.840624 -10.261983 15.133244 2.791155 0.000000 0.000000 0.000000 0.000000 0.000000 0.000000 3.772307 7.344701 -40.916114 -0.853288 -11.608149 -1.404325 4.689739 10.944197 -13.454561 0.000000 0.000000 0.000000 6.868111 3.382525 -42.629304 -2.533075 -2.522112 1.322497 1.087874 0.158018 -8.720776 0.000000 0.000000 0.000000
34.717798 81.355962 310.827331 1.648505 -6.084457 39.438351 -0.266702 -1.320771 -39.292385 -0.240178 1.339368 0.057304 -19.065783 -4.177192 -1.367012 0.000000 0.000000 0.000000 -5.752430 18.418227 -3.461936 -54.190572 -8.977633 -3.193726 30.568978 -8.487577 9.405162 27.481356 -53.740409 4.183690 0.000000 0.000000 0.000000 0.000000 0.000000 0.000000 4.140128 0.283852 -5.136879 34.218249 13.363599 -23.861039 2.665638 -1.532712 -5.396816 -10.920350 15.492566 1.124360 0.000000 0.000000 0.000000 0.000000 0.000000 0.000000 4.104446 4.819258 -39.727966 -3.109134 -10.107471 -1.129803 7.306812 6.800023 -15.433207 0.000000 0.000000 0.000000 6.533013 1.835519 -41.254421 -2.782848 -5.874979 1.276993 1.402289 2.316183 -9.338552 0.000000 0.000000 0.000000
34.112158 81.919188 309.000086 1.634041 -4.617606 38.066262 -0.374558 -1.489108 -37.931868 -0.122170 1.244959 0.062522 -18.707672 -4.323195 -0.956184 0.000000 0.000000 0.000000 -4.541631 19.539004 -3.474618 -58.887594 -10.238710 -5.884492 30.624992 -8.163232 9.626839 29.432920 -54.499341 2.787561 0.000000 0.000000 0.000000 0.000000 0.000000 0.000000 4.982844 -1.281116 -5.664386 33.330188 13.858021 -23.340042 4.061794 -1.181066 -5.885515 -12.885877 15.120975 0.412336 0.000000 0.000000 0.000000 0.000000 0.000000 0.000000 3.951991 3.377904 -38.407100 -4.626158 -8.781803 -0.918617 10.770047 1.603419 -17.916749 0.000000 0.000000 0.000000 7.012759 2.793824 -39.562981 -2.023601 -10.970713 0.859482 0.496769 5.433974 -9.147574 0.000000 0.000000 0.000000
33.794562 82.052306 307.394970 2.024119 -3.664933 36.531331 -0.372133 -1.446368 -36.372795 0.025110 0.986649 0.086329 -18.536212 -3.749923 -0.212192 0.000000 0.000000 0.000000 -4.202859 19.289026 -3.337628 -61.290271 -8.056098 -6.477941 30.534991 -8.438733 9.431589 33.112480 -55.766840 5.282057 0.000000 0.000000 0.000000 0.000000 0.000000 0.000000 5.727842 -3.525399 -6.608683 32.655053 15.113188 -22.665027 6.418919 -0.604365 -5.989097 -15.434520 14.868484 -0.775973 0.000000 0.000000 0.000000 0.000000 0.000000 0.000000 2.861286 2.442661 -36.755209 -5.183612 -7.175404 -0.800501 16.615679 -7.616526 -20.036736 0.000000 0.000000 0.000000 7.821299 6.112566 -37.524711 -0.657696 -16.500191 0.249399 -0.309603 7.234345 -9.232797 0.000000 0.000000 0.000000
33.431593 82.385200 305.802117 2.552676 -2.990083 34.209965 -0.329923 -1.288882 -34.022233 0.201037 0.466904 0.124787 -18.291910 -2.746917 0.574540 0.000000 0.000000 0.000000 -4.433898 18.307943 -3.132764 -59.601058 -3.865635 -5.411916 30.307405 -9.287817 8.800557 36.446092 -56.405758 11.157048 0.000000 0.000000 0.000000 0.000000 0.000000 0.000000 6.460438 -4.240980 -7.399670 32.352815 14.922182 -20.867559 9.953934 0.229603 -5.509391 -18.561306 13.816603 0.219256 0.000000 0.000000 0.000000 0.000000 0.000000 0.000000 1.518289 1.273873 -34.248868 -5.456531 -5.486609 -0.751511 18.561458 -11.091250 -21.235957 0.000000 0.000000 0.000000 8.261001 9.825681 -34.807870 0.274462 -19.639039 -0.246847 -0.620814 6.690685 -9.931526 0.000000 0.000000 0.000000
